<svg width="781" height="601" viewBox="0 0 781 601" fill="none" xmlns="http://www.w3.org/2000/svg">
<path fill-rule="evenodd" clip-rule="evenodd" d="M366.41 61.6523C431.389 61.4057 494.323 83.9066 537.191 122.003C573.387 154.171 544.132 213.837 576.747 248.579C623.277 298.144 769.079 291.426 756.922 356.064C744.892 420.024 608.316 392.241 542.63 429.975C498.153 455.526 494.834 514.663 446.52 534.381C393.255 556.12 332.45 549.426 277.101 538.346C211.042 525.121 142.87 508.609 101.31 465.272C55.0083 416.991 27.7272 353.422 38.8172 289.874C50.0722 225.382 99.2393 166.434 160.967 123.431C218.798 83.1423 293.309 61.9296 366.41 61.6523Z" fill="#EE6C4D"/>
<g clip-path="url(#clip0_241_335)">
<path d="M298.629 479.019L255.794 492.977C245.083 496.482 233.428 496.363 223.386 492.648C213.344 488.932 205.736 481.922 202.233 473.158L125.745 275.65L339.33 206.098C339.44 206.045 339.526 205.962 339.572 205.864C339.619 205.765 339.622 205.659 339.582 205.563C339.541 205.468 339.46 205.39 339.353 205.345C339.246 205.3 339.12 205.29 338.999 205.317L125.445 274.886L121.993 265.966C118.493 257.191 119.392 247.378 124.493 238.684C129.594 229.99 138.479 223.127 149.194 219.605L455.289 119.937C460.596 118.178 466.197 117.295 471.77 117.338C477.343 117.381 482.779 118.349 487.765 120.187C492.751 122.024 497.19 124.696 500.826 128.047C504.462 131.398 507.224 135.363 508.953 139.715L512.493 148.824L366.091 196.507C365.957 196.531 365.836 196.598 365.756 196.693C365.675 196.788 365.641 196.904 365.661 197.015C365.68 197.126 365.752 197.223 365.861 197.284C365.97 197.346 366.106 197.367 366.24 197.343C366.505 197.296 366.877 197.229 512.718 149.624L547.375 239.164L547.594 236.854L509.764 139.344C506.173 130.383 498.382 123.222 488.104 119.436C477.826 115.65 465.903 115.549 454.959 119.156L148.898 218.863C137.941 222.468 128.855 229.484 123.631 238.372C118.408 247.26 117.474 257.294 121.034 266.274L201.224 473.497C204.812 482.468 212.599 489.643 222.876 493.448C233.154 497.253 245.084 497.378 256.049 493.795L298.884 479.836C299.016 479.8 299.128 479.723 299.198 479.621C299.267 479.52 299.287 479.402 299.253 479.293C299.219 479.185 299.134 479.095 299.017 479.043C298.9 478.992 298.76 478.983 298.629 479.019V479.019Z" fill="#333333"/>
<path d="M590.054 346.663L549.017 240.688L548.798 242.997L589.11 347.058C592.586 355.831 591.669 365.632 586.563 374.313C581.456 382.993 572.576 389.842 561.871 393.358L313.905 474.021C313.798 474.073 313.713 474.154 313.667 474.25C313.62 474.346 313.615 474.45 313.651 474.544C313.688 474.639 313.764 474.717 313.866 474.765C313.968 474.813 314.09 474.828 314.21 474.807L562.182 394.029C573.124 390.421 582.198 383.413 587.421 374.537C592.643 365.661 593.59 355.639 590.054 346.663V346.663Z" fill="#333333"/>
<path d="M542.577 291.154L547.203 240.194L509.511 248.103L497.748 260.829C502.659 260.818 507.517 261.292 512.221 262.242C514.2 262.566 516.073 263.185 517.752 264.07C520.172 265.659 508.597 264.819 503.04 265.311C504.211 265.618 505.314 266.063 506.317 266.634C507.96 267.703 501.667 266.987 496.09 267.211C495.02 267.174 493.938 267.291 492.89 267.555C498.55 268.565 507.312 270.838 509.76 273.353C512.716 276.413 499.54 271.658 491.777 272.84C497.026 273.855 502.811 275.411 505.286 278.08C508.647 281.567 497.851 276.024 486.483 277.735C498.255 281.219 504.176 284.772 487.798 282.042C484.798 281.49 481.674 281.379 478.561 281.715L451.917 310.585C549.394 289.892 542.548 291.454 542.577 291.154Z" fill="#333333"/>
<path d="M552.366 204.102L544.507 289.992L592.021 230.604L599.873 144.829L552.366 204.102Z" fill="#333333"/>
<path d="M305.176 380.217C300.847 385.893 294.12 390.046 286.467 391.765C278.813 393.485 270.857 392.631 264.339 389.391L208.032 361.229C211.744 346.889 221.619 333.874 235.727 324.725L273.174 343.447C287.252 292.481 310.528 284.556 317.258 277.724C334.364 285.001 342.439 287.42 363.068 286.939C365.34 328.629 376.405 375.539 373.435 403.793C372.721 410.443 370.057 416.949 365.682 422.728L336.125 461.7C319.466 458.91 304.698 451.585 294.048 440.829L322.103 404.033L322.25 357.619C376.314 286.39 358.579 309.742 305.176 380.217Z" fill="white"/>
<path d="M518.501 263.505C516.73 262.589 514.762 261.949 512.684 261.615C505.107 259.993 503.555 260.202 429.42 258.564L406.795 248.298C407.042 246.143 406.647 244.851 405.597 244.493C405.304 244.387 406.861 245.13 354.445 218.817C352.592 213.637 352.204 208.091 353.312 202.603C368.256 204.204 370.128 193.176 365.01 181.51C365.663 180.995 366.18 180.371 366.524 179.684C366.867 178.998 367.029 178.266 366.997 177.541C366.965 176.816 366.74 176.117 366.339 175.494C365.937 174.872 365.369 174.341 364.676 173.941C365.457 173.335 366.046 172.577 366.384 171.743C366.722 170.91 366.796 170.03 366.6 169.194C366.404 168.358 365.944 167.595 365.267 166.982C364.589 166.369 363.719 165.928 362.743 165.703C363.261 164.948 363.546 164.105 363.571 163.257C363.595 162.41 363.358 161.585 362.883 160.864C362.407 160.143 361.709 159.55 360.856 159.141C360.003 158.733 359.024 158.523 358.014 158.532C358.196 157.718 358.133 156.891 357.831 156.128C357.528 155.366 356.996 154.692 356.283 154.17C355.57 153.648 354.7 153.294 353.752 153.14C352.804 152.987 351.81 153.04 350.861 153.293C350.721 152.493 350.342 151.749 349.759 151.127C349.176 150.505 348.407 150.026 347.522 149.733C346.637 149.44 345.664 149.342 344.691 149.449C343.718 149.555 342.776 149.862 341.951 150.342C341.525 149.6 340.87 148.975 340.05 148.528C339.23 148.081 338.272 147.826 337.269 147.789C336.266 147.751 335.251 147.932 334.322 148.313C333.393 148.695 332.582 149.265 331.966 149.968C331.25 149.351 330.345 148.91 329.336 148.687C328.328 148.464 327.25 148.468 326.209 148.697C325.167 148.927 324.196 149.374 323.389 149.996C322.582 150.618 321.968 151.394 321.604 152.249C320.289 151.706 318.742 151.621 317.282 152.013C315.822 152.405 314.561 153.242 313.758 154.353C313.371 153.467 312.73 152.684 311.89 152.071C311.049 151.458 310.033 151.032 308.925 150.828C307.817 150.624 306.65 150.648 305.519 150.898C304.389 151.148 303.329 151.617 302.427 152.267C301.574 151.362 300.417 150.695 299.09 150.343C297.763 149.991 296.319 149.967 294.924 150.276C293.53 150.584 292.243 151.211 291.21 152.085C290.177 152.959 289.441 154.044 289.087 155.215C287.796 154.939 286.412 154.982 285.099 155.339C283.785 155.695 282.595 156.351 281.667 157.231C280.738 158.11 280.11 159.176 279.855 160.305C279.6 161.434 279.728 162.58 280.225 163.609C278.931 164.067 277.797 164.818 276.956 165.773C276.115 166.728 275.602 167.847 275.479 168.999C275.355 170.15 275.626 171.286 276.259 172.271C276.892 173.256 277.861 174.05 279.051 174.559C278.175 175.502 277.628 176.621 277.474 177.779C277.321 178.937 277.569 180.086 278.187 181.087C278.805 182.088 279.768 182.898 280.96 183.419C282.151 183.941 283.52 184.152 284.901 184.027C284.929 185.165 285.342 186.251 286.093 187.16C286.844 188.07 287.902 188.764 289.143 189.163C290.385 189.562 291.76 189.649 293.108 189.414C294.456 189.179 295.722 188.632 296.759 187.836C297.375 188.534 298.181 189.093 299.118 189.473C300.054 189.853 301.096 190.042 302.163 190.028C302.162 191.288 302.742 192.469 303.782 193.324C304.822 194.179 306.243 194.641 307.748 194.616C307.576 195.432 307.649 196.257 307.959 197.016C308.27 197.775 308.808 198.445 309.524 198.963C310.241 199.481 311.113 199.831 312.06 199.982C313.008 200.132 314.002 200.078 314.95 199.824C315.093 200.627 315.477 201.374 316.065 201.997C316.653 202.62 317.427 203.099 318.318 203.391C319.208 203.683 320.186 203.779 321.164 203.67C322.141 203.561 323.086 203.25 323.913 202.765C324.344 203.508 325.005 204.132 325.831 204.575C326.658 205.018 327.622 205.266 328.629 205.294C329.636 205.323 330.652 205.131 331.578 204.737C332.503 204.343 333.307 203.761 333.909 203.047C335.403 204.005 337.25 204.525 339.188 204.534C335.021 213.906 325.921 223.273 322.757 232.126C314.525 255.143 320.406 261.245 316.797 277.443C307.821 285.198 286.818 293.739 272.873 342.684L236.113 324.429C235.997 324.371 235.857 324.353 235.72 324.377C235.583 324.402 235.458 324.467 235.369 324.561C232.168 326.635 229.175 328.932 226.426 331.426C207.71 323.414 206.327 323.343 190.54 313.469C190.476 313.426 190.398 313.398 190.315 313.389C190.232 313.38 190.146 313.39 190.065 313.417C162.938 321.416 132.341 335.007 119.565 342.964C119.476 343.008 119.404 343.073 119.358 343.15C119.313 343.227 119.296 343.313 119.311 343.395C119.325 343.477 119.37 343.552 119.44 343.609C119.509 343.666 119.6 343.702 119.698 343.712C141.143 346.501 163.376 345.192 184.776 339.882L210.613 352.799C209.454 355.334 208.487 357.919 207.716 360.536C207.631 360.805 207.648 361.084 207.766 361.333C207.884 361.581 208.097 361.786 208.373 361.918L264.014 389.722C270.642 393.026 278.739 393.901 286.528 392.152C294.317 390.404 301.163 386.177 305.564 380.397L321.809 358.992L321.585 403.898L294.071 440.189C293.917 440.385 293.839 440.614 293.85 440.842C293.861 441.069 293.959 441.282 294.131 441.45C296.271 443.521 298.551 445.487 300.961 447.337C286.728 468.043 275.495 480.356 275.472 480.996C275.106 495.253 282.036 526.325 289.902 539.725C289.943 539.796 290.008 539.854 290.09 539.893C290.172 539.932 290.266 539.95 290.363 539.944C290.46 539.939 290.554 539.911 290.636 539.863C290.718 539.815 290.783 539.75 290.824 539.674C301.248 518.196 304.14 505.509 307.797 483.422L325.781 459.777C328.91 460.704 332.119 461.458 335.39 462.035C335.632 462.072 335.888 462.046 336.122 461.96C336.356 461.873 336.558 461.731 336.701 461.551L366.085 422.838C370.508 417.001 373.198 410.427 373.913 403.707C376.857 375.617 365.933 328.114 363.553 286.897L367.255 278.448L374.782 281.941C375.955 282.526 378.457 281.035 379.702 279.564L401.144 288.27C406.079 290.171 411.619 290.891 417.188 290.356C417.799 290.247 478.891 280.953 487.652 282.454C490.789 283.192 494.081 283.494 497.401 283.348C498.171 283.21 498.261 282.944 498.362 282.745C498.89 281.401 493.011 279.159 488.561 277.864C498.126 277.11 505.502 280.675 506.526 279.198C506.885 278.748 506.342 278.164 505.922 277.649C502.901 275.231 499.127 273.557 494.974 272.791C501.016 272.871 508.132 274.984 510.151 274.623C510.974 274.476 511.384 273.858 510.449 272.912C507.932 270.319 501.463 268.613 495.932 267.557C500.15 267.394 504.747 267.664 506.366 267.374C507.508 267.171 507.642 266.534 506.894 266.031C506.478 265.768 506.034 265.536 505.565 265.338C509.761 265.202 515.496 265.404 517.674 265.015C519.226 264.806 519.309 264.042 518.501 263.505ZM403.87 244.643C400.926 245.804 397.232 250.755 395.574 253.14L394.462 252.589C394.419 252.347 395.058 249.167 393.229 248.586L361.059 232.418C358.504 228.515 356.446 224.379 354.915 220.073L403.87 244.643ZM340.019 205.044C342.856 198.816 343.647 191.568 338.818 186.913C338.783 186.875 338.739 186.844 338.688 186.821C338.637 186.799 338.58 186.787 338.521 186.784C331.447 186.14 333.057 179.177 337.995 180.906C339.753 181.546 342.004 182.03 342.2 180.36C342.16 179.708 342.391 179.049 342.854 178.495C343.529 179.11 344.398 179.553 345.373 179.781C346.348 180.008 347.394 180.01 348.406 179.788C349.418 179.566 350.359 179.127 351.134 178.516C351.91 177.905 352.492 177.142 352.822 176.307C353.971 176.807 355.317 176.952 356.635 176.717C357.953 176.481 359.165 175.88 360.071 175.013C364.437 180.909 369.483 193.245 364.343 198.999C361.591 202.011 356.449 202.679 349.015 200.941C348.669 200.844 348.059 201.111 348.625 201.828C349.191 202.544 349.853 203.334 351.715 205.636C351.43 208.941 351.676 212.235 352.444 215.428C349.288 220.782 340.632 217.105 334.877 214.023C336.849 211.128 338.568 208.126 340.019 205.044ZM186.789 339.796C190.327 332.901 194.959 326.389 200.551 320.446C208.602 324.687 216.985 328.498 225.654 331.859C219.336 337.743 214.356 344.522 210.987 351.824L186.789 339.796ZM307.25 482.657C299.12 479.521 291.686 475.336 285.202 470.245C291.3 462.481 296.882 454.9 301.652 447.986C308.461 452.951 316.281 456.88 324.793 459.613L307.25 482.657ZM372.926 403.702C372.233 410.278 369.614 416.713 365.301 422.433L345.617 448.38C329.609 445.265 315.258 438.388 304.188 428.529C323.717 402.791 322.756 404.166 322.744 403.941L322.816 380.496L355.529 314.464C355.562 314.368 355.554 314.267 355.508 314.18C355.463 314.092 355.381 314.022 355.277 313.982C355.174 313.942 355.054 313.934 354.939 313.959C354.824 313.985 354.721 314.042 354.646 314.122L304.718 379.799C300.461 385.381 293.845 389.464 286.319 391.152C278.792 392.841 270.969 391.997 264.564 388.806L221.017 367.063C223.975 360.148 227.814 353.477 232.463 347.173C284.424 369.39 280.949 368.034 281.215 367.987C281.481 367.94 280.92 368.948 316.988 304.678C323.035 302.132 328.511 298.656 333.113 294.443C333.191 294.356 333.23 294.249 333.221 294.144C333.213 294.039 333.158 293.943 333.068 293.875C332.977 293.806 332.857 293.77 332.731 293.773C332.605 293.776 332.481 293.819 332.385 293.892C323.763 301.585 312.452 306.745 300.327 308.515C300.193 308.539 300.073 308.606 299.992 308.701C299.912 308.797 299.877 308.912 299.897 309.023C299.917 309.134 299.989 309.231 300.098 309.293C300.206 309.354 300.342 309.375 300.476 309.351C305.65 308.523 310.718 307.145 315.556 305.252L280.906 367.02L233.033 346.526C237.248 340.975 242.304 335.879 248.063 331.378L272.933 343.786C272.999 343.813 273.073 343.827 273.149 343.826C273.225 343.825 273.301 343.809 273.371 343.778C273.44 343.748 273.501 343.705 273.549 343.653C273.597 343.6 273.629 343.54 273.645 343.477C287.278 295.087 307.66 286.453 317.306 278.147C333.696 285.098 342.026 287.72 362.557 287.302C364.858 328.692 375.851 375.66 372.926 403.702ZM373.756 280.489L340.683 265.096C340.579 265.049 340.456 265.037 340.336 265.06C340.216 265.084 340.108 265.142 340.03 265.224C339.952 265.307 339.91 265.408 339.911 265.509C339.913 265.611 339.958 265.706 340.038 265.778C361.058 284.732 362.708 286.458 362.708 286.458C342.318 286.896 334.075 284.303 317.803 277.399C321.381 261.026 315.524 255.214 323.7 232.343C325.73 226.668 330.198 220.83 334.282 214.833C339.915 217.846 348.639 221.602 352.672 216.704C354.084 221.919 356.29 226.919 359.239 231.585L339.541 221.75C338.997 221.461 338.442 222.196 338.987 222.485L391.559 248.748C384.882 251.415 372.129 273.968 373.756 280.489ZM506.047 266.659C504.268 266.977 496.617 266.481 492.417 267.049C490.217 266.697 487.987 266.451 485.737 266.312C485.609 266.321 485.487 266.37 485.395 266.449C485.303 266.527 485.247 266.631 485.239 266.738C485.23 266.844 485.27 266.948 485.349 267.027C485.429 267.105 485.543 267.154 485.669 267.164C490.625 267.142 507.505 270.077 509.911 273.894C508.273 273.824 506.658 273.618 505.089 273.279C500.836 272.335 496.378 272.003 491.899 272.296C488.747 271.678 486.026 271.323 484.974 271.261C484.855 271.266 484.739 271.305 484.646 271.372C484.553 271.438 484.489 271.529 484.464 271.628C484.439 271.726 484.456 271.827 484.511 271.912C484.566 271.997 484.656 272.061 484.766 272.093C490.355 272.708 502.743 274.878 505.533 278.853C503.296 278.753 495.086 276.041 486.541 277.294L484.662 276.744C484.536 276.709 484.396 276.719 484.271 276.771C484.147 276.823 484.049 276.913 483.999 277.021C483.95 277.129 483.952 277.247 484.006 277.348C484.06 277.449 484.161 277.525 484.287 277.56C492.48 279.867 496.778 281.847 497.313 282.546C496.888 282.622 495.082 282.944 487.894 281.662C478.966 280.145 419.582 289.179 417.104 289.576C411.72 290.083 406.366 289.385 401.592 287.554L375 276.703C376.663 269.117 383.945 256.306 389.639 251.202L417.143 264.865C417.444 265.016 414.968 264.958 487.603 263.867C492.734 264.063 502.493 264.547 506.047 266.659ZM503.34 264.69C498.253 263.65 493.015 263.063 487.712 262.939L417.583 264.106L396.545 253.67C398.043 251.356 399.832 249.171 401.879 247.155L429.034 259.473C429.034 259.473 492.508 260.948 495.813 261.039C501.477 261.037 507.083 261.559 512.53 262.596C514.464 262.904 516.295 263.499 517.94 264.355C516.138 264.699 507.55 264.325 503.34 264.69Z" fill="#333333"/>
<path d="M409.479 169.348C407.352 169.725 405.18 169.589 403.22 168.958C401.26 168.327 399.593 167.226 398.416 165.785C397.24 164.344 396.602 162.624 396.578 160.826C396.555 159.029 397.146 157.229 398.283 155.64C399.42 154.05 401.055 152.737 402.995 151.855C404.935 150.974 407.1 150.56 409.234 150.663C411.367 150.766 413.381 151.381 415.038 152.437C416.694 153.492 417.925 154.943 418.584 156.62C419.086 157.897 419.242 159.27 419.041 160.642C418.84 162.014 418.287 163.353 417.421 164.564C416.554 165.776 415.395 166.832 414.023 167.658C412.651 168.484 411.101 169.061 409.479 169.348V169.348ZM399.02 156.774C398.274 158.035 397.898 159.41 397.926 160.778C397.955 162.146 398.386 163.465 399.182 164.618C399.978 165.771 401.115 166.723 402.491 167.389C403.868 168.055 405.441 168.415 407.073 168.436C408.705 168.458 410.344 168.141 411.846 167.513C413.348 166.886 414.666 165.967 415.684 164.838C416.702 163.709 417.388 162.405 417.681 161.041C417.975 159.677 417.867 158.295 417.367 157.018C416.758 155.482 415.605 154.162 414.055 153.226C412.505 152.29 410.627 151.781 408.66 151.762C406.693 151.743 404.725 152.217 403.006 153.122C401.287 154.027 399.895 155.323 399.005 156.845L399.02 156.774Z" fill="#333333"/>
<path d="M437.356 160.33C435.229 160.707 433.057 160.572 431.097 159.941C429.137 159.309 427.47 158.208 426.293 156.768C425.117 155.327 424.479 153.606 424.455 151.809C424.432 150.011 425.023 148.211 426.16 146.622C427.297 145.033 428.932 143.72 430.872 142.838C432.812 141.956 434.977 141.542 437.11 141.645C439.244 141.748 441.258 142.364 442.915 143.419C444.571 144.475 445.802 145.926 446.461 147.602C446.968 148.879 447.128 150.253 446.929 151.627C446.73 153 446.178 154.34 445.31 155.553C444.443 156.765 443.281 157.822 441.907 158.647C440.533 159.472 438.98 160.047 437.356 160.33V160.33ZM426.897 147.757C426.151 149.017 425.775 150.392 425.803 151.76C425.832 153.128 426.263 154.447 427.059 155.6C427.855 156.754 428.992 157.705 430.368 158.371C431.745 159.037 433.318 159.397 434.95 159.419C436.582 159.44 438.221 159.123 439.723 158.496C441.225 157.868 442.543 156.949 443.561 155.82C444.579 154.691 445.265 153.387 445.558 152.023C445.852 150.659 445.744 149.278 445.244 148.001C444.646 146.457 443.501 145.128 441.954 144.183C440.407 143.237 438.529 142.719 436.559 142.693C434.588 142.668 432.615 143.136 430.89 144.038C429.164 144.941 427.765 146.237 426.87 147.761L426.897 147.757Z" fill="#333333"/>
<path d="M474.804 138.433C474.122 136.694 472.827 135.198 471.081 134.133C469.335 133.069 467.217 132.484 464.995 132.453C462.773 132.422 460.547 132.946 458.597 133.959C456.648 134.972 455.063 136.428 454.043 138.143C453.023 139.858 452.614 141.755 452.867 143.595C453.121 145.435 454.025 147.134 455.466 148.478C456.907 149.823 458.821 150.751 460.964 151.147C463.107 151.543 465.385 151.388 467.508 150.702C468.92 150.249 470.23 149.571 471.362 148.708C472.494 147.846 473.426 146.814 474.104 145.674C474.782 144.534 475.193 143.307 475.313 142.065C475.433 140.822 475.26 139.588 474.804 138.433V138.433Z" fill="#333333"/>
<path d="M176.021 179.759L161.363 174.383L168.772 161.821C168.804 161.725 168.797 161.625 168.751 161.537C168.705 161.449 168.624 161.38 168.52 161.339C168.416 161.299 168.297 161.291 168.182 161.317C168.067 161.342 167.963 161.4 167.889 161.479L160.5 174.151L145.843 168.775C145.253 168.54 144.79 169.326 145.38 169.562L160.034 174.916L152.645 187.587C152.603 187.659 152.584 187.737 152.591 187.814C152.597 187.891 152.628 187.963 152.681 188.024C152.734 188.084 152.807 188.13 152.891 188.157C152.976 188.184 153.069 188.191 153.161 188.176C153.559 188.105 153.046 188.764 160.974 175.429C176.408 181.165 175.647 180.893 175.807 180.864C175.98 180.878 176.157 180.834 176.3 180.74C176.443 180.647 176.539 180.512 176.567 180.365C176.596 180.219 176.554 180.072 176.451 179.959C176.349 179.845 176.194 179.773 176.021 179.759V179.759Z" fill="#333333"/>
<path d="M195.919 389.071C195.531 388.89 199.644 386.907 134.258 417.63C134.18 417.67 134.116 417.725 134.069 417.79C134.023 417.855 133.997 417.928 133.994 418.002C133.99 418.075 134.01 418.147 134.05 418.211C134.09 418.274 134.15 418.326 134.224 418.363L154.854 428.507L134.553 454.837C134.513 454.884 134.483 454.937 134.467 454.993C134.45 455.048 134.447 455.105 134.457 455.161C134.466 455.216 134.489 455.268 134.524 455.315C134.559 455.361 134.605 455.401 134.659 455.431C150.621 463.208 149.681 462.854 149.893 462.816C150.106 462.778 148.839 464.434 170.526 436.2L191.104 446.354C191.178 446.39 191.263 446.408 191.351 446.407C191.438 446.407 191.526 446.387 191.605 446.35C191.684 446.313 191.751 446.26 191.801 446.197C191.851 446.133 191.88 446.061 191.888 445.987C196.55 385.689 196.285 389.278 195.919 389.071ZM169.991 435.5L149.69 461.83L135.648 454.982C157.49 426.538 156.081 428.629 155.984 428.238C155.887 427.846 157.156 428.664 135.501 417.998L172.765 400.606L189.842 444.808L170.674 435.333C170.561 435.284 170.428 435.274 170.301 435.305C170.175 435.336 170.063 435.406 169.991 435.5V435.5Z" fill="#333333"/>
<path d="M465.551 391.004C465.286 391.051 465.312 391.047 424.568 387.966C424.478 387.947 424.398 387.906 424.336 387.849C424.275 387.791 424.236 387.72 424.222 387.642C424.208 387.564 424.221 387.484 424.258 387.409C424.296 387.334 424.357 387.268 424.434 387.218L453.914 362.429C454.016 362.369 454.136 362.339 454.256 362.346C454.375 362.352 454.485 362.394 454.566 362.464C454.647 362.533 454.694 362.626 454.699 362.727C454.704 362.827 454.667 362.928 454.594 363.011L426.01 387.141L465.543 390.188C465.607 390.184 465.67 390.191 465.73 390.207C465.789 390.224 465.843 390.251 465.889 390.286C465.935 390.321 465.971 390.364 465.996 390.412C466.021 390.46 466.034 390.512 466.035 390.566C466.035 390.619 466.023 390.673 465.999 390.724C465.975 390.775 465.94 390.822 465.895 390.863C465.85 390.904 465.796 390.937 465.737 390.961C465.678 390.985 465.615 391 465.551 391.004Z" fill="#333333"/>
<path d="M496.449 380.334L524.845 355.148L485.462 353.096C485.387 353.104 485.312 353.098 485.243 353.079C485.173 353.059 485.11 353.027 485.059 352.984C485.008 352.941 484.97 352.889 484.946 352.83C484.923 352.772 484.916 352.709 484.925 352.647C484.935 352.584 484.96 352.523 485 352.468C485.04 352.413 485.094 352.365 485.157 352.327C485.22 352.29 485.291 352.265 485.365 352.252C485.439 352.24 485.515 352.242 485.586 352.257C515.114 353.434 523.281 353.906 525.527 354.209C526.538 354.346 526.808 354.48 525.974 355.332C524.41 356.86 518.537 362.041 497.235 380.898C497.138 380.99 497.005 381.049 496.863 381.062C496.721 381.074 496.583 381.039 496.479 380.964C496.375 380.89 496.313 380.781 496.308 380.663C496.302 380.545 496.353 380.427 496.449 380.334V380.334Z" fill="#333333"/>
<path d="M472.804 402.038L476.806 341.88C476.813 341.768 476.872 341.66 476.97 341.578C477.068 341.497 477.198 341.45 477.332 341.446C477.468 341.448 477.595 341.495 477.686 341.576C477.777 341.657 477.825 341.766 477.82 341.881L473.818 402.038C473.799 402.145 473.732 402.244 473.633 402.316C473.533 402.389 473.408 402.429 473.28 402.428C473.153 402.428 473.033 402.388 472.945 402.316C472.857 402.244 472.807 402.144 472.804 402.038Z" fill="#333333"/>
</g>
<defs>
<clipPath id="clip0_241_335">
<rect width="539.517" height="447.044" fill="white" transform="matrix(0.984437 -0.175737 0.175301 0.984515 67.3438 152.477)"/>
</clipPath>
</defs>
</svg>
